<svg width="376" height="379" viewBox="0 0 376 379" fill="none" xmlns="http://www.w3.org/2000/svg">
<path d="M17.2486 40.138C18.5372 36.6555 23.4628 36.6556 24.7514 40.138L26.0336 43.6031C26.4388 44.698 27.302 45.5612 28.3969 45.9664L31.862 47.2486C35.3445 48.5372 35.3444 53.4628 31.862 54.7514L28.3969 56.0336C27.302 56.4388 26.4388 57.302 26.0336 58.3969L24.7514 61.862C23.4628 65.3445 18.5372 65.3444 17.2486 61.862L15.9664 58.3969C15.5612 57.302 14.698 56.4388 13.6031 56.0336L10.138 54.7514C6.65555 53.4628 6.65555 48.5372 10.138 47.2486L13.6031 45.9664C14.698 45.5612 15.5612 44.698 15.9664 43.6031L17.2486 40.138Z" fill="#010339"/>
<path d="M351.249 318.138C352.537 314.656 357.463 314.656 358.751 318.138L360.034 321.603C360.439 322.698 361.302 323.561 362.397 323.966L365.862 325.249C369.344 326.537 369.344 331.463 365.862 332.751L362.397 334.034C361.302 334.439 360.439 335.302 360.034 336.397L358.751 339.862C357.463 343.344 352.537 343.344 351.249 339.862L349.966 336.397C349.561 335.302 348.698 334.439 347.603 334.034L344.138 332.751C340.656 331.463 340.656 326.537 344.138 325.249L347.603 323.966C348.698 323.561 349.561 322.698 349.966 321.603L351.249 318.138Z" fill="#010339"/>
<path d="M33.6864 7.60352C34.6529 4.99167 38.3471 4.99166 39.3136 7.60352L40.2077 10.0199C40.5115 10.841 41.159 11.4885 41.9801 11.7923L44.3965 12.6864C47.0083 13.6529 47.0083 17.3471 44.3965 18.3136L41.9801 19.2077C41.159 19.5115 40.5115 20.159 40.2077 20.9801L39.3136 23.3965C38.3471 26.0083 34.6529 26.0083 33.6864 23.3965L32.7923 20.9801C32.4885 20.159 31.841 19.5115 31.0199 19.2077L28.6035 18.3136C25.9917 17.3471 25.9917 13.6529 28.6035 12.6864L31.0199 11.7923C31.841 11.4885 32.4885 10.841 32.7923 10.0199L33.6864 7.60352Z" fill="#010339"/>
<path d="M327.686 353.604C328.653 350.992 332.347 350.992 333.314 353.604L334.208 356.02C334.512 356.841 335.159 357.488 335.98 357.792L338.396 358.686C341.008 359.653 341.008 363.347 338.396 364.314L335.98 365.208C335.159 365.512 334.512 366.159 334.208 366.98L333.314 369.396C332.347 372.008 328.653 372.008 327.686 369.396L326.792 366.98C326.488 366.159 325.841 365.512 325.02 365.208L322.604 364.314C319.992 363.347 319.992 359.653 322.604 358.686L325.02 357.792C325.841 357.488 326.488 356.841 326.792 356.02L327.686 353.604Z" fill="#010339"/>
<path d="M193.601 16.9761C196.475 16.9762 198.806 19.3065 198.806 22.1812V24.1509L324.204 58.7759L192.874 95.0679L61.4639 58.7837L186.863 24.1304V22.1812C186.863 19.3065 189.194 16.9761 192.068 16.9761H193.601Z" fill="#010339"/>
<path d="M193.601 16.9761L193.601 16.4556H193.601V16.9761ZM198.806 22.1812H199.326V22.1811L198.806 22.1812ZM198.806 24.1509H198.285V24.5471L198.667 24.6526L198.806 24.1509ZM324.204 58.7759L324.343 59.2776L326.159 58.7757L324.343 58.2741L324.204 58.7759ZM192.874 95.0679L192.735 95.5696L192.874 95.6079L193.013 95.5696L192.874 95.0679ZM61.4639 58.7837L61.3252 58.282L59.5089 58.7839L61.3253 59.2854L61.4639 58.7837ZM186.863 24.1304L187.002 24.6321L187.384 24.5266V24.1304H186.863ZM186.863 22.1812L186.343 22.1811V22.1812H186.863ZM193.601 16.9761L193.601 17.4966C196.188 17.4967 198.285 19.594 198.285 22.1812L198.806 22.1812L199.326 22.1811C199.326 19.019 196.763 16.4557 193.601 16.4556L193.601 16.9761ZM198.806 22.1812H198.285V24.1509H198.806H199.326V22.1812H198.806ZM198.806 24.1509L198.667 24.6526L324.066 59.2776L324.204 58.7759L324.343 58.2741L198.944 23.6491L198.806 24.1509ZM324.204 58.7759L324.065 58.2742L192.735 94.5662L192.874 95.0679L193.013 95.5696L324.343 59.2776L324.204 58.7759ZM192.874 95.0679L193.013 94.5661L61.6024 58.282L61.4639 58.7837L61.3253 59.2854L192.735 95.5696L192.874 95.0679ZM61.4639 58.7837L61.6025 59.2854L187.002 24.6321L186.863 24.1304L186.725 23.6287L61.3252 58.282L61.4639 58.7837ZM186.863 24.1304H187.384V22.1812H186.863H186.343V24.1304H186.863ZM186.863 22.1812L187.384 22.1812C187.384 19.5939 189.481 17.4966 192.068 17.4966V16.9761V16.4556C188.906 16.4556 186.343 19.019 186.343 22.1811L186.863 22.1812ZM192.068 16.9761V17.4966H193.601V16.9761V16.4556H192.068V16.9761Z" fill="#F7F7F7"/>
<path d="M318.999 52.8052C321.874 52.8053 324.204 55.1356 324.204 58.0103V58.7954L324.245 58.7847V341.687L192.835 377.971V95.0688L312.261 62.0933V58.0103C312.261 55.1355 314.592 52.8052 317.467 52.8052H318.999Z" fill="#010339"/>
<path d="M318.999 52.8052L318.999 52.2847H318.999V52.8052ZM324.204 58.7954H323.684V59.4698L324.336 59.2989L324.204 58.7954ZM324.245 58.7847H324.766V58.1103L324.113 58.2811L324.245 58.7847ZM324.245 341.687L324.384 342.189L324.766 342.083V341.687H324.245ZM192.835 377.971H192.314V378.655L192.973 378.473L192.835 377.971ZM192.835 95.0688L192.696 94.5671L192.314 94.6726V95.0688H192.835ZM312.261 62.0933L312.399 62.595L312.781 62.4895V62.0933H312.261ZM318.999 52.8052L318.999 53.3257C321.586 53.3258 323.684 55.4231 323.684 58.0103H324.204H324.725C324.725 54.8481 322.161 52.2848 318.999 52.2847L318.999 52.8052ZM324.204 58.0103H323.684V58.7954H324.204H324.725V58.0103H324.204ZM324.204 58.7954L324.336 59.2989L324.377 59.2882L324.245 58.7847L324.113 58.2811L324.072 58.2919L324.204 58.7954ZM324.245 58.7847H323.725V341.687H324.245H324.766V58.7847H324.245ZM324.245 341.687L324.107 341.185L192.696 377.469L192.835 377.971L192.973 378.473L324.384 342.189L324.245 341.687ZM192.835 377.971H193.355V95.0688H192.835H192.314V377.971H192.835ZM192.835 95.0688L192.973 95.5706L312.399 62.595L312.261 62.0933L312.122 61.5915L192.696 94.5671L192.835 95.0688ZM312.261 62.0933H312.781V58.0103H312.261H311.74V62.0933H312.261ZM312.261 58.0103H312.781C312.781 55.4231 314.879 53.3257 317.467 53.3257V52.8052V52.2847C314.305 52.2847 311.74 54.8479 311.74 58.0103H312.261ZM317.467 52.8052V53.3257H318.999V52.8052V52.2847H317.467V52.8052Z" fill="#F7F7F7"/>
<path d="M68.2012 52.8046C71.0759 52.8046 73.4062 55.135 73.4062 58.0096V62.0819L192.874 95.0692V377.972L61.4639 341.687V58.0096C61.4639 55.135 63.7943 52.8046 66.6689 52.8046H68.2012Z" fill="#010339"/>
<path d="M73.4062 58.0096H73.9268V58.0096L73.4062 58.0096ZM73.4062 62.0819H72.8857V62.4782L73.2677 62.5836L73.4062 62.0819ZM192.874 95.0692H193.395V94.6729L193.013 94.5675L192.874 95.0692ZM192.874 377.972L192.735 378.473L193.395 378.655V377.972H192.874ZM61.4639 341.687H60.9434V342.084L61.3253 342.189L61.4639 341.687ZM61.4639 58.0096L60.9434 58.0096V58.0096H61.4639ZM66.6689 52.8046V52.2841H66.6689L66.6689 52.8046ZM68.2012 52.8046V53.3251C70.7884 53.3251 72.8857 55.4224 72.8857 58.0096L73.4062 58.0096L73.9268 58.0096C73.9267 54.8475 71.3633 52.2841 68.2012 52.2841V52.8046ZM73.4062 58.0096H72.8857V62.0819H73.4062H73.9268V58.0096H73.4062ZM73.4062 62.0819L73.2677 62.5836L192.735 95.5709L192.874 95.0692L193.013 94.5675L73.5448 61.5802L73.4062 62.0819ZM192.874 95.0692H192.354V377.972H192.874H193.395V95.0692H192.874ZM192.874 377.972L193.013 377.47L61.6024 341.186L61.4639 341.687L61.3253 342.189L192.735 378.473L192.874 377.972ZM61.4639 341.687H61.9844V58.0096H61.4639H60.9434V341.687H61.4639ZM61.4639 58.0096L61.9844 58.0096C61.9844 55.4224 64.0817 53.3251 66.669 53.3251L66.6689 52.8046L66.6689 52.2841C63.5068 52.2841 60.9434 54.8475 60.9434 58.0096L61.4639 58.0096ZM66.6689 52.8046V53.3251H68.2012V52.8046V52.2841H66.6689V52.8046Z" fill="#F7F7F7"/>
<path d="M73.4062 78.1833L85.349 81.1688V340.923L73.4062 345.402V78.1833Z" fill="#010339"/>
<path d="M73.4062 78.1833L85.349 81.1688V340.923L73.4062 345.402V78.1833Z" fill="#010339"/>
<path d="M73.4062 78.1833L85.349 81.1688V340.923L73.4062 345.402V78.1833Z" stroke="#F7F7F7" stroke-width="1.04103"/>
<path d="M312.261 78.1833L300.318 81.1688V340.923L312.261 345.402V78.1833Z" fill="#010339" stroke="#F7F7F7" stroke-width="1.04103"/>
<path d="M306.397 151.305C306.397 149.923 305.076 148.925 303.746 149.302L203.46 177.792V188.996L304.884 160.184C305.78 159.929 306.397 159.112 306.397 158.181L306.397 151.305Z" fill="#010339" stroke="#F7F7F7" stroke-width="1.04103"/>
<path d="M306.397 229.165C306.397 227.783 305.076 226.784 303.746 227.162L203.46 255.651V313.082L304.884 284.269C305.78 284.015 306.397 283.197 306.397 282.267L306.397 229.165Z" fill="#010339" stroke="#F7F7F7" stroke-width="1.04103"/>
<path d="M306.397 101.891C306.397 100.509 305.076 99.5105 303.746 99.8881L203.46 128.377V139.582L304.884 110.77C305.78 110.515 306.397 109.698 306.397 108.767L306.397 101.891Z" fill="#010339" stroke="#F7F7F7" stroke-width="1.04103"/>
<path d="M79.1279 151.305C79.1279 149.923 80.4496 148.925 81.7789 149.302L182.065 177.792V188.996L80.641 160.184C79.7457 159.929 79.1279 159.112 79.1279 158.181L79.1279 151.305Z" fill="#010339" stroke="#F7F7F7" stroke-width="1.04103"/>
<path d="M79.1279 229.165C79.1279 227.783 80.4496 226.784 81.7789 227.162L182.065 255.651V313.082L80.641 284.269C79.7457 284.015 79.1279 283.197 79.1279 282.267L79.1279 229.165Z" fill="#010339" stroke="#F7F7F7" stroke-width="1.04103"/>
<path d="M79.1279 101.891C79.1279 100.509 80.4496 99.5105 81.7789 99.8881L182.065 128.377V139.582L80.641 110.77C79.7457 110.515 79.1279 109.698 79.1279 108.767L79.1279 101.891Z" fill="#010339" stroke="#F7F7F7" stroke-width="1.04103"/>
<path d="M60 18.7402C60 17.363 61.3131 16.3652 62.64 16.7343L122.275 33.3207C123.176 33.5713 123.8 34.3916 123.8 35.3267V36.2382C123.8 37.6154 122.486 38.6132 121.16 38.2441L61.5241 21.6576C60.6233 21.4071 60 20.5867 60 19.6517V18.7402Z" fill="#010339"/>
<path d="M326.825 18.7402C326.825 17.363 325.512 16.3652 324.185 16.7343L264.55 33.3207C263.649 33.5713 263.026 34.3916 263.026 35.3267V36.2382C263.026 37.6154 264.339 38.6132 265.666 38.2441L325.301 21.6576C326.202 21.4071 326.825 20.5867 326.825 19.6517V18.7402Z" fill="#010339"/>
<path d="M146.585 44.0646C146.585 42.7064 147.864 41.7119 149.181 42.0468L242.053 65.6825C242.976 65.9173 243.622 66.7481 243.622 67.7002V68.6371C243.622 69.9953 242.343 70.9898 241.026 70.6548L148.154 47.0192C147.231 46.7843 146.585 45.9535 146.585 45.0014V44.0646Z" fill="#F7F7F7"/>
<path d="M243.622 44.0646C243.622 42.7064 242.343 41.7119 241.027 42.0468L148.154 65.6825C147.231 65.9173 146.585 66.7481 146.585 67.7002V68.6371C146.585 69.9953 147.864 70.9898 149.181 70.6548L242.054 47.0192C242.976 46.7843 243.622 45.9535 243.622 45.0014V44.0646Z" fill="#F7F7F7"/>
<line x1="181.664" y1="110.566" x2="181.664" y2="374.132" stroke="#F7F7F7" stroke-width="1.03932" stroke-linecap="round"/>
<line x1="202.386" y1="110.566" x2="202.386" y2="374.132" stroke="#F7F7F7" stroke-width="1.03932" stroke-linecap="round"/>
</svg>
