<svg width="448" height="340" viewBox="0 0 448 340" fill="none" xmlns="http://www.w3.org/2000/svg">
<path d="M394.327 102.128L252.707 141.263L111 102.136L252.621 63L394.327 102.128Z" fill="#010339"/>
<path d="M394.327 102.128L394.577 103.031L397.845 102.128L394.576 101.225L394.327 102.128ZM252.707 141.263L252.458 142.165L252.707 142.234L252.956 142.165L252.707 141.263ZM111 102.136L110.751 101.233L107.483 102.136L110.751 103.038L111 102.136ZM252.621 63L252.87 62.0972L252.621 62.0284L252.372 62.0973L252.621 63ZM394.327 102.128L394.078 101.225L252.458 140.36L252.707 141.263L252.956 142.165L394.577 103.031L394.327 102.128ZM252.707 141.263L252.956 140.36L111.249 101.233L111 102.136L110.751 103.038L252.458 142.165L252.707 141.263ZM111 102.136L111.249 103.038L252.871 63.9027L252.621 63L252.372 62.0973L110.751 101.233L111 102.136ZM252.621 63L252.372 63.9028L394.078 103.031L394.327 102.128L394.576 101.225L252.87 62.0972L252.621 63Z" fill="#F7F7F7"/>
<path d="M394.371 286.883L252.664 326.01V141.264L394.371 102.136V286.883Z" fill="#010339"/>
<path d="M394.371 286.883L394.62 287.785L395.308 287.596V286.883H394.371ZM252.664 326.01H251.728V327.24L252.913 326.912L252.664 326.01ZM252.664 141.264L252.415 140.362L251.728 140.551V141.264H252.664ZM394.371 102.136H395.308V100.906L394.122 101.234L394.371 102.136ZM394.371 286.883L394.122 285.98L252.415 325.107L252.664 326.01L252.913 326.912L394.62 287.785L394.371 286.883ZM252.664 326.01H253.601V141.264H252.664H251.728V326.01H252.664ZM252.664 141.264L252.913 142.167L394.62 103.039L394.371 102.136L394.122 101.234L252.415 140.362L252.664 141.264ZM394.371 102.136H393.435V286.883H394.371H395.308V102.136H394.371Z" fill="#F7F7F7"/>
<path d="M252.707 141.264V326.01L111 286.883V102.136L252.707 141.264Z" fill="#010339"/>
<path d="M252.707 141.264H253.644V140.551L252.956 140.362L252.707 141.264ZM252.707 326.01L252.458 326.912L253.644 327.24V326.01H252.707ZM111 286.883H110.063V287.596L110.751 287.785L111 286.883ZM111 102.136L111.249 101.234L110.063 100.906V102.136H111ZM252.707 141.264H251.77V326.01H252.707H253.644V141.264H252.707ZM252.707 326.01L252.956 325.107L111.249 285.98L111 286.883L110.751 287.785L252.458 326.912L252.707 326.01ZM111 286.883H111.937V102.136H111H110.063V286.883H111ZM111 102.136L110.751 103.039L252.458 142.167L252.707 141.264L252.956 140.362L111.249 101.234L111 102.136Z" fill="#F7F7F7"/>
<path d="M128.33 136.036C128.33 134.697 129.621 133.736 130.903 134.12L163.86 143.983C164.707 144.236 165.287 145.015 165.287 145.899V274.902C165.287 276.241 163.996 277.202 162.713 276.818L129.757 266.955C128.91 266.702 128.33 265.923 128.33 265.039L128.33 136.036Z" fill="#010339" stroke="white" stroke-width="1.87"/>
<path d="M138.643 137.833L163.88 145.691C164.716 145.951 165.286 146.725 165.286 147.601V267.275L140.048 259.416C139.212 259.156 138.643 258.382 138.643 257.507L138.643 137.833Z" fill="#010339" stroke="white" stroke-width="1.87"/>
<path d="M190.211 154.944C190.211 153.605 191.501 152.644 192.784 153.028L225.741 162.891C226.587 163.144 227.167 163.923 227.167 164.807V293.81C227.167 295.149 225.877 296.11 224.594 295.726L191.638 285.863C190.791 285.61 190.211 284.831 190.211 283.947L190.211 154.944Z" fill="#010339" stroke="white" stroke-width="1.87"/>
<path d="M376.713 136.036C376.713 134.697 375.422 133.736 374.139 134.12L341.183 143.983C340.336 144.236 339.756 145.015 339.756 145.899V274.902C339.756 276.241 341.047 277.202 342.33 276.818L375.286 266.955C376.133 266.702 376.713 265.923 376.713 265.039L376.713 136.036Z" fill="#010339" stroke="white" stroke-width="1.87"/>
<path d="M314.832 154.944C314.832 153.605 313.542 152.644 312.259 153.028L279.302 162.891C278.456 163.144 277.876 163.923 277.876 164.807V293.81C277.876 295.149 279.166 296.11 280.449 295.726L313.405 285.863C314.252 285.61 314.832 284.831 314.832 283.947L314.832 154.944Z" fill="#010339" stroke="white" stroke-width="1.87"/>
<path d="M200.523 155.696L225.761 163.554C226.597 163.815 227.167 164.588 227.167 165.464V285.138L201.929 277.28C201.093 277.019 200.523 276.246 200.523 275.37L200.523 155.696Z" fill="#010339" stroke="white" stroke-width="1.87"/>
<path d="M304.518 155.696L279.28 163.554C278.444 163.815 277.874 164.588 277.874 165.464V285.138L303.112 277.28C303.948 277.019 304.518 276.246 304.518 275.37L304.518 155.696Z" fill="#010339" stroke="white" stroke-width="1.87"/>
<path d="M366.398 136.788L341.161 144.646C340.325 144.907 339.755 145.68 339.755 146.556V266.23L364.993 258.372C365.829 258.111 366.398 257.338 366.398 256.462L366.398 136.788Z" fill="#010339" stroke="white" stroke-width="1.87"/>
<path d="M214.065 104.129C214.204 104.129 214.343 104.148 214.477 104.186L243.268 112.412C243.912 112.596 244.356 113.185 244.356 113.855V126.231C244.356 127.22 243.416 127.938 242.462 127.679L166.675 107.076C164.985 106.617 165.317 104.129 167.068 104.129H214.065Z" fill="white"/>
<path d="M214.065 98.972C214.204 98.972 214.343 98.9526 214.477 98.9143L243.268 90.6883C243.912 90.5044 244.356 89.9158 244.356 89.2461V76.8696C244.356 75.881 243.416 75.1628 242.462 75.4221L166.675 96.0246C164.985 96.4838 165.317 98.972 167.068 98.972H214.065Z" fill="white"/>
<path d="M290.976 98.972C290.837 98.972 290.698 98.9526 290.564 98.9143L261.773 90.6883C261.129 90.5044 260.685 89.9158 260.685 89.2461V76.8696C260.685 75.881 261.625 75.1628 262.579 75.4221L338.367 96.0246C340.056 96.4838 339.724 98.972 337.973 98.972H290.976Z" fill="white"/>
<path d="M290.976 104.129C290.837 104.129 290.698 104.148 290.564 104.186L261.773 112.412C261.129 112.596 260.685 113.185 260.685 113.855V126.231C260.685 127.22 261.625 127.938 262.579 127.679L338.367 107.076C340.056 106.617 339.724 104.129 337.973 104.129H290.976Z" fill="white"/>
<path d="M24.7514 287.138C23.4628 283.656 18.5372 283.656 17.2486 287.138L15.9664 290.603C15.5612 291.698 14.698 292.561 13.6031 292.966L10.138 294.249C6.65555 295.537 6.65555 300.463 10.138 301.751L13.6031 303.034C14.698 303.439 15.5612 304.302 15.9664 305.397L17.2486 308.862C18.5372 312.344 23.4628 312.344 24.7514 308.862L26.0336 305.397C26.4388 304.302 27.302 303.439 28.3969 303.034L31.862 301.751C35.3445 300.463 35.3444 295.537 31.862 294.249L28.3969 292.966C27.302 292.561 26.4388 291.698 26.0336 290.603L24.7514 287.138Z" fill="#010339"/>
<path d="M57.3136 316.604C56.3471 313.992 52.6529 313.992 51.6864 316.604L50.7923 319.02C50.4885 319.841 49.841 320.488 49.0199 320.792L46.6035 321.686C43.9917 322.653 43.9917 326.347 46.6035 327.314L49.0199 328.208C49.841 328.512 50.4885 329.159 50.7923 329.98L51.6864 332.396C52.6529 335.008 56.3471 335.008 57.3136 332.396L58.2077 329.98C58.5115 329.159 59.159 328.512 59.9801 328.208L62.3965 327.314C65.0083 326.347 65.0083 322.653 62.3965 321.686L59.9801 320.792C59.159 320.488 58.5115 319.841 58.2077 319.02L57.3136 316.604Z" fill="#010339"/>
<path d="M402.751 10.138C401.463 6.65555 396.537 6.65555 395.249 10.138L393.966 13.6031C393.561 14.698 392.698 15.5612 391.603 15.9664L388.138 17.2486C384.656 18.5372 384.656 23.4628 388.138 24.7514L391.603 26.0336C392.698 26.4388 393.561 27.302 393.966 28.3969L395.249 31.862C396.537 35.3445 401.463 35.3444 402.751 31.862L404.034 28.3969C404.439 27.302 405.302 26.4388 406.397 26.0336L409.862 24.7514C413.344 23.4628 413.344 18.5372 409.862 17.2486L406.397 15.9664C405.302 15.5612 404.439 14.698 404.034 13.6031L402.751 10.138Z" fill="#010339"/>
<path d="M435.314 39.6035C434.347 36.9917 430.653 36.9917 429.686 39.6035L428.792 42.0199C428.488 42.841 427.841 43.4885 427.02 43.7923L424.604 44.6864C421.992 45.6529 421.992 49.3471 424.604 50.3136L427.02 51.2077C427.841 51.5115 428.488 52.159 428.792 52.9801L429.686 55.3965C430.653 58.0083 434.347 58.0083 435.314 55.3965L436.208 52.9801C436.512 52.159 437.159 51.5115 437.98 51.2077L440.396 50.3136C443.008 49.3471 443.008 45.6529 440.396 44.6864L437.98 43.7923C437.159 43.4885 436.512 42.841 436.208 42.0199L435.314 39.6035Z" fill="#010339"/>
</svg>
