<svg width="426" height="334" viewBox="0 0 426 334" fill="none" xmlns="http://www.w3.org/2000/svg">
<path fill-rule="evenodd" clip-rule="evenodd" d="M315.525 212.865C325.75 210.126 337.604 221.211 342.002 237.624C346.4 254.037 341.677 269.564 331.452 272.304C330.963 272.435 330.469 272.533 329.974 272.602L311.165 277.643L295.256 218.27L315.113 212.948L315.122 212.982C315.256 212.941 315.39 212.902 315.525 212.865Z" fill="#010339"/>
<path d="M315.525 212.865L315.256 211.861L315.525 212.865ZM342.002 237.624L343.006 237.355L343.006 237.355L342.002 237.624ZM331.452 272.304L331.721 273.308L331.721 273.308L331.452 272.304ZM329.974 272.602L329.831 271.572L329.767 271.581L329.705 271.598L329.974 272.602ZM311.165 277.643L310.161 277.912L310.43 278.916L311.434 278.647L311.165 277.643ZM295.256 218.27L294.987 217.265L293.983 217.535L294.252 218.539L295.256 218.27ZM315.113 212.948L316.118 212.682L315.851 211.674L314.844 211.944L315.113 212.948ZM315.122 212.982L314.117 213.248L314.393 214.291L315.426 213.976L315.122 212.982ZM315.525 212.865L315.794 213.87C320.434 212.626 325.598 214.482 330.239 218.822C334.867 223.15 338.841 229.844 340.998 237.893L342.002 237.624L343.006 237.355C340.765 228.991 336.613 221.936 331.659 217.303C326.717 212.682 320.841 210.365 315.256 211.861L315.525 212.865ZM342.002 237.624L340.998 237.893C343.154 245.942 343.06 253.727 341.216 259.789C339.367 265.868 335.823 270.056 331.183 271.3L331.452 272.304L331.721 273.308C337.306 271.811 341.236 266.866 343.205 260.394C345.179 253.905 345.247 245.719 343.006 237.355L342.002 237.624ZM331.452 272.304L331.183 271.3C330.738 271.419 330.286 271.509 329.831 271.572L329.974 272.602L330.116 273.631C330.652 273.557 331.188 273.451 331.721 273.308L331.452 272.304ZM329.974 272.602L329.705 271.598L310.896 276.639L311.165 277.643L311.434 278.647L330.243 273.606L329.974 272.602ZM311.165 277.643L312.169 277.374L296.26 218.001L295.256 218.27L294.252 218.539L310.161 277.912L311.165 277.643ZM295.256 218.27L295.525 219.274L315.382 213.953L315.113 212.948L314.844 211.944L294.987 217.265L295.256 218.27ZM315.113 212.948L314.108 213.214L314.117 213.248L315.122 212.982L316.127 212.716L316.118 212.682L315.113 212.948ZM315.122 212.982L315.426 213.976C315.551 213.938 315.673 213.902 315.794 213.87L315.525 212.865L315.256 211.861C315.106 211.901 314.96 211.944 314.819 211.987L315.122 212.982Z" fill="#F7F7F7"/>
<ellipse cx="302.317" cy="248.261" rx="19.1666" ry="30.7675" transform="rotate(-15 302.317 248.261)" fill="#010339" stroke="#F7F7F7" stroke-width="2.0792"/>
<rect x="299.203" y="261.417" width="62.7294" height="18.4503" rx="9.22517" transform="rotate(-135 299.203 261.417)" fill="#010339" stroke="#F7F7F7" stroke-width="2.0792"/>
<path d="M290.643 170.241L209.437 192.664V238.333L290.643 215.911L290.643 170.241Z" fill="#010339" stroke="#F7F7F7" stroke-width="2.0792"/>
<rect x="219.496" y="78.9301" width="103.565" height="23.2017" rx="11.6009" transform="rotate(30 219.496 78.9301)" fill="#010339" stroke="#F7F7F7" stroke-width="2.0792"/>
<path d="M117.133 155.11L209.434 192.939V238.333L117.133 200.504L117.133 155.11Z" fill="#010339" stroke="#F7F7F7" stroke-width="2.0792"/>
<path d="M198.341 132.412L290.642 170.241L208.93 193.444L116.629 155.615L198.341 132.412Z" fill="#010339" stroke="#F7F7F7" stroke-width="2.0792"/>
<path fill-rule="evenodd" clip-rule="evenodd" d="M146.339 185.794C146.522 185.792 146.705 185.78 146.887 185.758C149.593 185.442 152.412 186.322 154.488 188.398L215.556 249.465C219.158 253.068 219.158 258.909 215.556 262.511C211.953 266.114 206.113 266.114 202.51 262.511L146.356 206.357C145.498 205.499 144.247 205.164 143.074 205.478L92.338 219.073C87.4167 220.391 82.3579 217.471 81.0392 212.549C79.7207 207.628 82.6414 202.57 87.5626 201.251L144.079 186.108C144.834 185.906 145.592 185.805 146.339 185.794Z" fill="#010339"/>
<path d="M154.488 188.398L155.225 187.661L155.225 187.661L154.488 188.398ZM215.556 249.465L216.292 248.729V248.729L215.556 249.465ZM215.556 262.511L216.292 263.248V263.248L215.556 262.511ZM202.51 262.511L203.247 261.775V261.775L202.51 262.511ZM92.338 219.073L92.6077 220.079H92.6077L92.338 219.073ZM81.0392 212.549L80.0329 212.819L80.0329 212.819L81.0392 212.549ZM87.5626 201.251L87.293 200.245H87.293L87.5626 201.251ZM144.079 186.108L144.349 187.114V187.114L144.079 186.108ZM146.356 206.357L145.619 207.094L146.356 206.357ZM143.074 205.478L142.805 204.472L143.074 205.478ZM146.887 185.758L147.008 186.793L146.887 185.758ZM146.887 185.758L147.008 186.793C149.411 186.512 151.91 187.293 153.752 189.135L154.488 188.398L155.225 187.661C152.914 185.351 149.775 184.372 146.766 184.724L146.887 185.758ZM154.488 188.398L153.752 189.135L214.819 250.202L215.556 249.465L216.292 248.729L155.225 187.661L154.488 188.398ZM215.556 249.465L214.819 250.202C218.015 253.398 218.015 258.579 214.819 261.775L215.556 262.511L216.292 263.248C220.302 259.238 220.302 252.738 216.292 248.729L215.556 249.465ZM215.556 262.511L214.819 261.775C211.623 264.97 206.442 264.97 203.247 261.775L202.51 262.511L201.773 263.248C205.783 267.257 212.283 267.257 216.292 263.248L215.556 262.511ZM202.51 262.511L203.247 261.775L147.092 205.62L146.356 206.357L145.619 207.094L201.773 263.248L202.51 262.511ZM143.074 205.478L142.805 204.472L92.0684 218.066L92.338 219.073L92.6077 220.079L143.344 206.484L143.074 205.478ZM92.338 219.073L92.0684 218.066C87.7028 219.236 83.2152 216.645 82.0455 212.28L81.0392 212.549L80.0329 212.819C81.5005 218.296 87.1306 221.547 92.6077 220.079L92.338 219.073ZM81.0392 212.549L82.0455 212.28C80.8759 207.914 83.4667 203.427 87.8323 202.258L87.5626 201.251L87.293 200.245C81.8161 201.713 78.5655 207.342 80.0329 212.819L81.0392 212.549ZM87.5626 201.251L87.8323 202.258L144.349 187.114L144.079 186.108L143.81 185.102L87.293 200.245L87.5626 201.251ZM144.079 186.108L144.349 187.114C145.019 186.935 145.691 186.845 146.354 186.836L146.339 185.794L146.325 184.753C145.493 184.764 144.649 184.877 143.81 185.102L144.079 186.108ZM146.356 206.357L147.092 205.62C145.971 204.499 144.337 204.061 142.805 204.472L143.074 205.478L143.344 206.484C144.157 206.266 145.024 206.499 145.619 207.094L146.356 206.357ZM146.887 185.758L146.766 184.724C146.619 184.741 146.472 184.75 146.325 184.753L146.339 185.794L146.354 186.836C146.573 186.833 146.791 186.819 147.008 186.793L146.887 185.758Z" fill="#F7F7F7"/>
<path fill-rule="evenodd" clip-rule="evenodd" d="M209.776 244.8C220.001 242.06 231.855 253.145 236.253 269.559C240.651 285.972 235.927 301.498 225.702 304.238C225.218 304.368 224.73 304.465 224.239 304.534L205.417 309.578L189.508 250.205L209.365 244.884L209.373 244.916C209.506 244.875 209.641 244.836 209.776 244.8Z" fill="#010339"/>
<path d="M209.776 244.8L209.507 243.796L209.507 243.796L209.776 244.8ZM236.253 269.559L237.257 269.289L237.257 269.289L236.253 269.559ZM225.702 304.238L225.971 305.242L225.971 305.242L225.702 304.238ZM224.239 304.534L224.095 303.505L224.032 303.513L223.97 303.53L224.239 304.534ZM205.417 309.578L204.413 309.847L204.682 310.851L205.686 310.582L205.417 309.578ZM189.508 250.205L189.239 249.201L188.235 249.47L188.504 250.474L189.508 250.205ZM209.365 244.884L210.376 244.639L210.125 243.604L209.096 243.88L209.365 244.884ZM209.373 244.916L208.363 245.161L208.622 246.232L209.677 245.91L209.373 244.916ZM209.776 244.8L210.045 245.804C214.685 244.561 219.848 246.416 224.49 250.756C229.118 255.084 233.092 261.778 235.249 269.828L236.253 269.559L237.257 269.289C235.016 260.925 230.864 253.871 225.91 249.238C220.968 244.617 215.092 242.299 209.507 243.796L209.776 244.8ZM236.253 269.559L235.249 269.828C237.405 277.877 237.311 285.661 235.466 291.723C233.617 297.802 230.073 301.991 225.433 303.234L225.702 304.238L225.971 305.242C231.556 303.746 235.486 298.801 237.456 292.329C239.43 285.839 239.498 277.654 237.257 269.289L236.253 269.559ZM225.702 304.238L225.433 303.234C224.992 303.352 224.546 303.442 224.095 303.505L224.239 304.534L224.383 305.564C224.914 305.489 225.444 305.384 225.971 305.242L225.702 304.238ZM224.239 304.534L223.97 303.53L205.148 308.574L205.417 309.578L205.686 310.582L224.508 305.538L224.239 304.534ZM205.417 309.578L206.421 309.309L190.512 249.936L189.508 250.205L188.504 250.474L204.413 309.847L205.417 309.578ZM189.508 250.205L189.777 251.209L209.634 245.888L209.365 244.884L209.096 243.88L189.239 249.201L189.508 250.205ZM209.365 244.884L208.355 245.129L208.363 245.161L209.373 244.916L210.383 244.671L210.376 244.639L209.365 244.884ZM209.373 244.916L209.677 245.91C209.802 245.872 209.924 245.836 210.045 245.804L209.776 244.8L209.507 243.796C209.358 243.836 209.211 243.878 209.07 243.922L209.373 244.916Z" fill="#F7F7F7"/>
<ellipse cx="196.571" cy="280.196" rx="19.1666" ry="30.7675" transform="rotate(-15 196.571 280.196)" fill="#010339" stroke="#F7F7F7" stroke-width="2.0792"/>
<path fill-rule="evenodd" clip-rule="evenodd" d="M89.7344 188.309C99.959 185.57 111.813 196.654 116.211 213.067C120.609 229.48 115.885 245.008 105.66 247.747C105.173 247.878 104.683 247.976 104.189 248.044L85.374 253.087L69.4648 193.714L89.3223 188.393L89.3301 188.425C89.4638 188.384 89.5987 188.345 89.7344 188.309Z" fill="#010339"/>
<path d="M89.7344 188.309L89.4653 187.305L89.4653 187.305L89.7344 188.309ZM116.211 213.067L117.215 212.798V212.798L116.211 213.067ZM105.66 247.747L105.929 248.752L105.929 248.752L105.66 247.747ZM104.189 248.044L104.046 247.015L103.982 247.023L103.92 247.04L104.189 248.044ZM85.374 253.087L84.3698 253.356L84.6389 254.36L85.6432 254.091L85.374 253.087ZM69.4648 193.714L69.1958 192.71L68.1916 192.979L68.4607 193.983L69.4648 193.714ZM89.3223 188.393L90.3326 188.148L90.0817 187.113L89.0532 187.389L89.3223 188.393ZM89.3301 188.425L88.3197 188.67L88.5794 189.741L89.6336 189.419L89.3301 188.425ZM89.7344 188.309L90.0034 189.313C94.643 188.07 99.8064 189.925 104.448 194.265C109.076 198.593 113.05 205.287 115.207 213.336L116.211 213.067L117.215 212.798C114.974 204.434 110.822 197.379 105.868 192.746C100.926 188.126 95.0504 185.808 89.4653 187.305L89.7344 188.309ZM116.211 213.067L115.207 213.336C117.364 221.385 117.269 229.17 115.424 235.232C113.575 241.311 110.031 245.5 105.391 246.743L105.66 247.747L105.929 248.752C111.514 247.255 115.444 242.31 117.414 235.837C119.388 229.347 119.456 221.162 117.215 212.798L116.211 213.067ZM105.66 247.747L105.391 246.743C104.948 246.862 104.499 246.951 104.046 247.015L104.189 248.044L104.333 249.074C104.866 249 105.399 248.894 105.929 248.752L105.66 247.747ZM104.189 248.044L103.92 247.04L85.1049 252.083L85.374 253.087L85.6432 254.091L104.459 249.048L104.189 248.044ZM85.374 253.087L86.3782 252.818L70.469 193.445L69.4648 193.714L68.4607 193.983L84.3698 253.356L85.374 253.087ZM69.4648 193.714L69.7339 194.718L89.5914 189.397L89.3223 188.393L89.0532 187.389L69.1958 192.71L69.4648 193.714ZM89.3223 188.393L88.3119 188.638L88.3197 188.67L89.3301 188.425L90.3404 188.18L90.3326 188.148L89.3223 188.393ZM89.3301 188.425L89.6336 189.419C89.7577 189.382 89.881 189.346 90.0034 189.313L89.7344 188.309L89.4653 187.305C89.3165 187.345 89.1699 187.387 89.0265 187.431L89.3301 188.425Z" fill="#F7F7F7"/>
<ellipse cx="76.5256" cy="223.705" rx="19.1666" ry="30.7675" transform="rotate(-15 76.5256 223.705)" fill="#010339" stroke="#F7F7F7" stroke-width="2.0792"/>
<path d="M193.961 73.0872L210.566 34.649V80.7749L193.961 73.0872Z" fill="#010339" stroke="#F7F7F7" stroke-width="2.0792"/>
<path d="M245.621 73.0872L229.016 34.649V80.7749L245.621 73.0872Z" fill="#010339" stroke="#F7F7F7" stroke-width="2.0792"/>
<path d="M212.597 151.213C213.34 150.998 214.135 151.044 214.849 151.342L245.941 164.318C248.902 165.553 248.658 169.825 245.577 170.716L219.609 178.224C218.866 178.439 218.072 178.394 217.358 178.096L186.265 165.12C183.305 163.885 183.548 159.613 186.63 158.722L212.597 151.213Z" fill="#010339" stroke="#F7F7F7" stroke-width="2.0792"/>
<rect x="202.373" y="148.089" width="102.682" height="23.2017" rx="11.6009" transform="rotate(-15 202.373 148.089)" fill="#010339" stroke="#F7F7F7" stroke-width="2.0792"/>
<ellipse cx="219.793" cy="93.6903" rx="14.7603" ry="14.7603" fill="#010339" stroke="#F7F7F7" stroke-width="2.0792"/>
<path d="M382.765 21.6131C385.512 14.1889 396.012 14.1889 398.76 21.6131C399.623 23.9472 401.464 25.7876 403.798 26.6513C411.222 29.3985 411.222 39.8992 403.798 42.6464C401.464 43.5101 399.623 45.3504 398.76 47.6846C396.012 55.1088 385.512 55.1088 382.765 47.6846C381.901 45.3504 380.06 43.5101 377.726 42.6464C370.302 39.8992 370.302 29.3985 377.726 26.6513C380.06 25.7876 381.901 23.9472 382.765 21.6131Z" fill="#010339"/>
<path d="M370.92 81.3049C372.446 77.1803 378.279 77.1803 379.806 81.3049C380.286 82.6016 381.308 83.624 382.605 84.1039C386.729 85.6301 386.729 91.4638 382.605 92.99C381.308 93.4699 380.286 94.4923 379.806 95.789C378.279 99.9136 372.446 99.9136 370.92 95.789C370.44 94.4923 369.417 93.4699 368.121 92.99C363.996 91.4638 363.996 85.6301 368.121 84.1039C369.417 83.624 370.44 82.6016 370.92 81.3049Z" fill="#010339"/>
<path d="M19.2481 298.575C21.2322 293.213 28.8161 293.213 30.8002 298.575C31.424 300.261 32.7531 301.59 34.4389 302.214C39.8008 304.198 39.8008 311.782 34.4389 313.766C32.7531 314.39 31.424 315.719 30.8002 317.404C28.8161 322.766 21.2322 322.766 19.2481 317.404C18.6243 315.719 17.2952 314.39 15.6094 313.766C10.2475 311.782 10.2475 304.198 15.6094 302.214C17.2952 301.59 18.6243 300.261 19.2481 298.575Z" fill="#010339"/>
</svg>
