<svg width="26" height="26" viewBox="0 0 26 26" fill="none" xmlns="http://www.w3.org/2000/svg">
<path d="M9.11412 2.5355C10.3651 -0.845167 15.1466 -0.845168 16.3976 2.5355L17.5549 5.66311C17.9482 6.72598 18.7862 7.56399 19.8491 7.95729L22.9767 9.11461C26.3574 10.3656 26.3574 15.1471 22.9767 16.3981L19.8491 17.5554C18.7862 17.9487 17.9482 18.7867 17.5549 19.8496L16.3976 22.9772C15.1466 26.3579 10.3651 26.3579 9.11412 22.9772L7.9568 19.8496C7.5635 18.7867 6.72549 17.9487 5.66263 17.5554L2.53501 16.3981C-0.845655 15.1471 -0.845656 10.3656 2.53501 9.11461L5.66262 7.95729C6.72549 7.56399 7.5635 6.72598 7.9568 5.66311L9.11412 2.5355Z" fill="#010339"/>
</svg>
