<svg width="52" height="50" viewBox="0 0 52 50" fill="none" xmlns="http://www.w3.org/2000/svg">
<rect width="51.46" height="49.7403" rx="8.28886" fill="#172B54"/>
<path d="M38.2815 13.3487C35.9848 12.278 33.4981 11.501 30.9079 11.052C30.8623 11.0526 30.8189 11.0713 30.787 11.1038C30.4762 11.6737 30.1135 12.4162 29.8718 12.9861C27.1243 12.5719 24.3303 12.5719 21.5829 12.9861C21.3411 12.3989 20.9785 11.6737 20.6504 11.1038C20.6331 11.0693 20.5813 11.052 20.5295 11.052C17.9393 11.501 15.4699 12.278 13.1559 13.3487C13.1386 13.3487 13.1214 13.366 13.1041 13.3832C8.40708 20.4115 7.11195 27.2498 7.75088 34.019C7.75088 34.0536 7.76815 34.0881 7.80268 34.1054C10.911 36.3848 13.8984 37.7663 16.8513 38.6815C16.9032 38.6988 16.955 38.6815 16.9722 38.647C17.663 37.6972 18.2846 36.6956 18.82 35.6422C18.8545 35.5732 18.82 35.5041 18.7509 35.4868C17.7666 35.1069 16.8341 34.6579 15.9189 34.1399C15.8498 34.1054 15.8498 34.0017 15.9016 33.9499C16.0915 33.8118 16.2815 33.6564 16.4714 33.5182C16.506 33.4837 16.5578 33.4837 16.5923 33.501C22.5327 36.2121 28.9393 36.2121 34.8105 33.501C34.8451 33.4837 34.8969 33.4837 34.9314 33.5182C35.1214 33.6736 35.3113 33.8118 35.5013 33.9672C35.5703 34.019 35.5703 34.1226 35.484 34.1572C34.586 34.6925 33.6363 35.1242 32.652 35.5041C32.5829 35.5214 32.5656 35.6077 32.5829 35.6595C33.1355 36.7129 33.7572 37.7145 34.4306 38.6642C34.4824 38.6815 34.5342 38.6988 34.586 38.6815C37.5562 37.7663 40.5437 36.3848 43.652 34.1054C43.6865 34.0881 43.7038 34.0536 43.7038 34.019C44.4636 26.1964 42.4432 19.4099 38.3506 13.3832C38.3333 13.366 38.316 13.3487 38.2815 13.3487ZM19.7179 29.8919C17.9393 29.8919 16.4542 28.2514 16.4542 26.2309C16.4542 24.2105 17.9047 22.57 19.7179 22.57C21.5484 22.57 22.9989 24.2278 22.9816 26.2309C22.9816 28.2514 21.5311 29.8919 19.7179 29.8919ZM31.754 29.8919C29.9754 29.8919 28.4903 28.2514 28.4903 26.2309C28.4903 24.2105 29.9408 22.57 31.754 22.57C33.5845 22.57 35.035 24.2278 35.0178 26.2309C35.0178 28.2514 33.5845 29.8919 31.754 29.8919Z" fill="#F7F7F7"/>
</svg>
