<svg width="50" height="50" viewBox="0 0 50 50" fill="none" xmlns="http://www.w3.org/2000/svg">
<rect width="49.7331" height="49.7331" rx="8.28886" fill="#F7F7F7"/>
<g clip-path="url(#clip0_1251_23)">
<path d="M15.125 38.2328V24.427L10.8625 20.51L7.04016 18.3364V35.7965C7.04016 37.1445 8.1275 38.2328 9.46566 38.2328H15.125Z" fill="#4285F4"/>
<path d="M34.5286 38.2327H40.1879C41.5301 38.2327 42.6134 37.1403 42.6134 35.7963V18.3364L38.284 20.826L34.5286 24.4269V38.2327Z" fill="#34A853"/>
<path d="M15.1251 24.427L14.545 19.0327L15.1251 13.8698L24.8268 21.1787L34.5285 13.8698L35.1772 18.7539L34.5285 24.427L24.8268 31.7359L15.1251 24.427Z" fill="#EA4335"/>
<path d="M34.5286 13.8702V24.4274L42.6134 18.3367V15.0883C42.6134 12.0755 39.1895 10.3579 36.7925 12.1648L34.5286 13.8702Z" fill="#FBBC04"/>
<path d="M7.04016 18.3366L10.7585 21.138L15.125 24.4273V13.8701L12.8611 12.1647C10.4599 10.3577 7.04016 12.0754 7.04016 15.0881V18.3366Z" fill="#C5221F"/>
</g>
<defs>
<clipPath id="clip0_1251_23">
<rect width="35.6526" height="26.8787" fill="white" transform="translate(7.04028 11.4272)"/>
</clipPath>
</defs>
</svg>
