<svg width="268" height="363" viewBox="0 0 268 363" fill="none" xmlns="http://www.w3.org/2000/svg">
<path d="M134.092 0.976074C136.966 0.97618 139.297 3.30653 139.297 6.18115V8.15088L264.695 42.7759L133.365 79.0679L1.95508 42.7837L127.354 8.13037V6.18115C127.355 3.30647 129.685 0.976074 132.56 0.976074H134.092Z" fill="#010339"/>
<path d="M134.092 0.976074L134.092 0.455561H134.092V0.976074ZM139.297 6.18115H139.817V6.18115L139.297 6.18115ZM139.297 8.15088H138.776V8.54715L139.158 8.65262L139.297 8.15088ZM264.695 42.7759L264.834 43.2776L266.65 42.7757L264.834 42.2741L264.695 42.7759ZM133.365 79.0679L133.227 79.5696L133.365 79.6079L133.504 79.5696L133.365 79.0679ZM1.95508 42.7837L1.81643 42.282L0.000154614 42.7839L1.81654 43.2854L1.95508 42.7837ZM127.354 8.13037L127.493 8.63208L127.875 8.52655V8.13037H127.354ZM127.354 6.18115L126.834 6.18115V6.18115H127.354ZM134.092 0.976074L134.092 1.49659C136.679 1.49668 138.776 3.59402 138.776 6.18116L139.297 6.18115L139.817 6.18115C139.817 3.01905 137.254 0.455678 134.092 0.455561L134.092 0.976074ZM139.297 6.18115H138.776V8.15088H139.297H139.817V6.18115H139.297ZM139.297 8.15088L139.158 8.65262L264.557 43.2776L264.695 42.7759L264.834 42.2741L139.435 7.64914L139.297 8.15088ZM264.695 42.7759L264.557 42.2742L133.227 78.5662L133.365 79.0679L133.504 79.5696L264.834 43.2776L264.695 42.7759ZM133.365 79.0679L133.504 78.5661L2.09362 42.282L1.95508 42.7837L1.81654 43.2854L133.227 79.5696L133.365 79.0679ZM1.95508 42.7837L2.09372 43.2854L127.493 8.63208L127.354 8.13037L127.216 7.62866L1.81643 42.282L1.95508 42.7837ZM127.354 8.13037H127.875V6.18115H127.354H126.834V8.13037H127.354ZM127.354 6.18115L127.875 6.18116C127.875 3.59393 129.972 1.49659 132.56 1.49659V0.976074V0.455561C129.397 0.455561 126.834 3.019 126.834 6.18115L127.354 6.18115ZM132.56 0.976074V1.49659H134.092V0.976074V0.455561H132.56V0.976074Z" fill="#F7F7F7"/>
<path d="M259.49 36.8052C262.365 36.8053 264.695 39.1356 264.695 42.0103V42.7954L264.736 42.7847V325.687L133.326 361.971V79.0688L252.752 46.0933V42.0103C252.752 39.1355 255.083 36.8052 257.958 36.8052H259.49Z" fill="#010339"/>
<path d="M259.49 36.8052L259.49 36.2847H259.49V36.8052ZM264.695 42.7954H264.175V43.4698L264.827 43.2989L264.695 42.7954ZM264.736 42.7847H265.257V42.1103L264.604 42.2811L264.736 42.7847ZM264.736 325.687L264.875 326.189L265.257 326.083V325.687H264.736ZM133.326 361.971H132.806V362.655L133.465 362.473L133.326 361.971ZM133.326 79.0688L133.188 78.5671L132.806 78.6726V79.0688H133.326ZM252.752 46.0933L252.89 46.595L253.272 46.4895V46.0933H252.752ZM259.49 36.8052L259.49 37.3257C262.077 37.3258 264.175 39.4231 264.175 42.0103H264.695H265.216C265.216 38.8481 262.652 36.2848 259.49 36.2847L259.49 36.8052ZM264.695 42.0103H264.175V42.7954H264.695H265.216V42.0103H264.695ZM264.695 42.7954L264.827 43.2989L264.868 43.2882L264.736 42.7847L264.604 42.2811L264.563 42.2919L264.695 42.7954ZM264.736 42.7847H264.216V325.687H264.736H265.257V42.7847H264.736ZM264.736 325.687L264.598 325.185L133.188 361.469L133.326 361.971L133.465 362.473L264.875 326.189L264.736 325.687ZM133.326 361.971H133.847V79.0688H133.326H132.806V361.971H133.326ZM133.326 79.0688L133.465 79.5706L252.89 46.595L252.752 46.0933L252.613 45.5915L133.188 78.5671L133.326 79.0688ZM252.752 46.0933H253.272V42.0103H252.752H252.231V46.0933H252.752ZM252.752 42.0103H253.272C253.272 39.4231 255.371 37.3257 257.958 37.3257V36.8052V36.2847C254.796 36.2847 252.231 38.8479 252.231 42.0103H252.752ZM257.958 36.8052V37.3257H259.49V36.8052V36.2847H257.958V36.8052Z" fill="#F7F7F7"/>
<path d="M8.69238 36.8046C11.5671 36.8046 13.8974 39.135 13.8975 42.0096V46.0819L133.365 79.0692V361.972L1.95508 325.687V42.0096C1.95511 39.135 4.28548 36.8046 7.16016 36.8046H8.69238Z" fill="#010339"/>
<path d="M13.8975 42.0096H14.418V42.0096L13.8975 42.0096ZM13.8975 46.0819H13.3769V46.4782L13.7589 46.5836L13.8975 46.0819ZM133.365 79.0692H133.886V78.6729L133.504 78.5675L133.365 79.0692ZM133.365 361.972L133.227 362.473L133.886 362.655V361.972H133.365ZM1.95508 325.687H1.43457V326.084L1.81654 326.189L1.95508 325.687ZM1.95508 42.0096L1.43457 42.0096V42.0096H1.95508ZM7.16016 36.8046V36.2841H7.16015L7.16016 36.8046ZM8.69238 36.8046V37.3251C11.2796 37.3251 13.3769 39.4224 13.3769 42.0096L13.8975 42.0096L14.418 42.0096C14.4179 38.8475 11.8546 36.2841 8.69238 36.2841V36.8046ZM13.8975 42.0096H13.3769V46.0819H13.8975H14.418V42.0096H13.8975ZM13.8975 46.0819L13.7589 46.5836L133.227 79.5709L133.365 79.0692L133.504 78.5675L14.036 45.5802L13.8975 46.0819ZM133.365 79.0692H132.845V361.972H133.365H133.886V79.0692H133.365ZM133.365 361.972L133.504 361.47L2.09362 325.186L1.95508 325.687L1.81654 326.189L133.227 362.473L133.365 361.972ZM1.95508 325.687H2.47559V42.0096H1.95508H1.43457V325.687H1.95508ZM1.95508 42.0096L2.47559 42.0096C2.47562 39.4224 4.57296 37.3251 7.16016 37.3251L7.16016 36.8046L7.16015 36.2841C3.99801 36.2841 1.4346 38.8475 1.43457 42.0096L1.95508 42.0096ZM7.16016 36.8046V37.3251H8.69238V36.8046V36.2841H7.16016V36.8046Z" fill="#F7F7F7"/>
<path d="M13.8975 62.1833L25.8402 65.1688V324.923L13.8975 329.402V62.1833Z" fill="#010339"/>
<path d="M13.8975 62.1833L25.8402 65.1688V324.923L13.8975 329.402V62.1833Z" fill="#010339"/>
<path d="M13.8975 62.1833L25.8402 65.1688V324.923L13.8975 329.402V62.1833Z" stroke="#F7F7F7" stroke-width="1.04103"/>
<path d="M252.752 62.1833L240.809 65.1688V324.923L252.752 329.402V62.1833Z" fill="#010339" stroke="#F7F7F7" stroke-width="1.04103"/>
<path d="M246.889 135.305C246.889 133.923 245.567 132.925 244.238 133.302L143.952 161.792V172.996L245.376 144.184C246.271 143.929 246.889 143.112 246.889 142.181L246.889 135.305Z" fill="#010339" stroke="#F7F7F7" stroke-width="1.04103"/>
<path d="M246.889 213.165C246.889 211.783 245.567 210.784 244.238 211.162L143.952 239.651V297.082L245.376 268.269C246.271 268.015 246.889 267.197 246.889 266.267L246.889 213.165Z" fill="#010339" stroke="#F7F7F7" stroke-width="1.04103"/>
<path d="M246.889 85.8909C246.889 84.509 245.567 83.5105 244.238 83.8881L143.952 112.377V123.582L245.376 94.7696C246.271 94.5152 246.889 93.6975 246.889 92.7668L246.889 85.8909Z" fill="#010339" stroke="#F7F7F7" stroke-width="1.04103"/>
<path d="M19.6191 135.305C19.6191 133.923 20.9408 132.925 22.2701 133.302L122.556 161.792V172.996L21.1322 144.184C20.2369 143.929 19.6191 143.112 19.6191 142.181L19.6191 135.305Z" fill="#010339" stroke="#F7F7F7" stroke-width="1.04103"/>
<path d="M19.6191 213.165C19.6191 211.783 20.9408 210.784 22.2701 211.162L122.556 239.651V297.082L21.1322 268.269C20.2369 268.015 19.6191 267.197 19.6191 266.267L19.6191 213.165Z" fill="#010339" stroke="#F7F7F7" stroke-width="1.04103"/>
<path d="M19.6191 85.8909C19.6191 84.509 20.9408 83.5105 22.2701 83.8881L122.556 112.377V123.582L21.1322 94.7696C20.2369 94.5152 19.6191 93.6975 19.6191 92.7668L19.6191 85.8909Z" fill="#010339" stroke="#F7F7F7" stroke-width="1.04103"/>
<path d="M0.491211 2.74017C0.491211 1.36298 1.80434 0.365223 3.13117 0.734256L62.7666 17.3207C63.6674 17.5713 64.2907 18.3916 64.2907 19.3267V20.2382C64.2907 21.6154 62.9776 22.6132 61.6508 22.2441L2.01536 5.65761C1.11453 5.40706 0.491211 4.58671 0.491211 3.65169V2.74017Z" fill="#010339"/>
<path d="M267.316 2.74017C267.316 1.36298 266.003 0.365223 264.676 0.734256L205.041 17.3207C204.14 17.5713 203.517 18.3916 203.517 19.3267V20.2382C203.517 21.6154 204.83 22.6132 206.157 22.2441L265.792 5.65761C266.693 5.40706 267.316 4.58671 267.316 3.65169V2.74017Z" fill="#010339"/>
<path d="M87.0762 28.0646C87.0762 26.7064 88.3555 25.7119 89.6717 26.0468L182.545 49.6825C183.467 49.9173 184.113 50.7481 184.113 51.7002V52.6371C184.113 53.9953 182.834 54.9898 181.518 54.6548L88.6447 31.0192C87.722 30.7843 87.0762 29.9535 87.0762 29.0014V28.0646Z" fill="#F7F7F7"/>
<path d="M184.113 28.0646C184.113 26.7064 182.834 25.7119 181.518 26.0468L88.6448 49.6825C87.7221 49.9173 87.0763 50.7481 87.0763 51.7002V52.6371C87.0763 53.9953 88.3556 54.9898 89.6718 54.6548L182.545 31.0192C183.467 30.7843 184.113 29.9535 184.113 29.0014V28.0646Z" fill="#F7F7F7"/>
<line x1="122.155" y1="94.566" x2="122.155" y2="358.132" stroke="#F7F7F7" stroke-width="1.03932" stroke-linecap="round"/>
<line x1="142.877" y1="94.566" x2="142.877" y2="358.132" stroke="#F7F7F7" stroke-width="1.03932" stroke-linecap="round"/>
</svg>
