<svg width="50" height="50" viewBox="0 0 50 50" fill="none" xmlns="http://www.w3.org/2000/svg">
<g clip-path="url(#clip0_1251_18)">
<path d="M38.0769 0.00087738H11.6562C5.21866 0.00087738 0 5.21954 0 11.6571V38.0778C0 44.5153 5.21866 49.734 11.6562 49.734H38.0769C44.5145 49.734 49.7331 44.5153 49.7331 38.0778V11.6571C49.7331 5.21954 44.5145 0.00087738 38.0769 0.00087738Z" fill="url(#paint0_radial_1251_18)"/>
<path d="M38.0769 0.00087738H11.6562C5.21866 0.00087738 0 5.21954 0 11.6571V38.0778C0 44.5153 5.21866 49.734 11.6562 49.734H38.0769C44.5145 49.734 49.7331 44.5153 49.7331 38.0778V11.6571C49.7331 5.21954 44.5145 0.00087738 38.0769 0.00087738Z" fill="url(#paint1_radial_1251_18)"/>
<path d="M24.8684 5.44067C19.5925 5.44067 18.9302 5.46378 16.8581 5.55801C14.7899 5.65281 13.3782 5.98015 12.143 6.46058C10.8651 6.95675 9.78124 7.62057 8.70149 8.70071C7.62077 9.78066 6.95695 10.8645 6.45923 12.1418C5.97744 13.3774 5.6497 14.7897 5.55665 16.8569C5.46398 18.9292 5.4397 19.5917 5.4397 24.8679C5.4397 30.144 5.46301 30.8042 5.55704 32.8763C5.65223 34.9445 5.97957 36.3562 6.45961 37.5914C6.95617 38.8693 7.61999 39.9531 8.70013 41.0329C9.77969 42.1136 10.8635 42.779 12.1405 43.2751C13.3766 43.7556 14.7886 44.0829 16.8564 44.1777C18.9286 44.2719 19.5903 44.2951 24.8661 44.2951C30.1427 44.2951 30.8028 44.2719 32.8749 44.1777C34.9431 44.0829 36.3564 43.7556 37.5925 43.2751C38.8699 42.779 39.9522 42.1136 41.0315 41.0329C42.1122 39.9531 42.7759 38.8693 43.2738 37.592C43.7513 36.3562 44.0792 34.9441 44.1764 32.8766C44.2694 30.8046 44.2937 30.144 44.2937 24.8679C44.2937 19.5917 44.2694 18.9296 44.1764 16.8573C44.0792 14.7891 43.7513 13.3776 43.2738 12.1424C42.7759 10.8645 42.1122 9.78066 41.0315 8.70071C39.951 7.62018 38.8703 6.95636 37.5914 6.46078C36.3529 5.98015 34.9404 5.65261 32.8722 5.55801C30.7999 5.46378 30.1402 5.44067 24.8624 5.44067H24.8684ZM23.1257 8.94161C23.643 8.94083 24.2202 8.94161 24.8684 8.94161C30.0557 8.94161 30.6703 8.96026 32.7187 9.05331C34.6128 9.13996 35.6409 9.45642 36.3257 9.72238C37.2324 10.0744 37.8787 10.4954 38.5583 11.1755C39.2382 11.8555 39.659 12.503 40.012 13.4096C40.2779 14.0935 40.5948 15.1215 40.6811 17.0157C40.7741 19.0637 40.7943 19.6787 40.7943 24.8634C40.7943 30.0481 40.7741 30.6633 40.6811 32.7111C40.5944 34.6053 40.2779 35.6333 40.012 36.3174C39.66 37.224 39.2382 37.8696 38.5583 38.5491C37.8783 39.2291 37.2328 39.6499 36.3257 40.0021C35.6417 40.2692 34.6128 40.5849 32.7187 40.6715C30.6707 40.7646 30.0557 40.7848 24.8684 40.7848C19.6811 40.7848 19.0662 40.7646 17.0184 40.6715C15.1243 40.5841 14.0962 40.2676 13.4108 40.0017C12.5043 39.6495 11.8566 39.2287 11.1767 38.5487C10.4967 37.8688 10.076 37.2228 9.72296 36.3158C9.45701 35.6318 9.14015 34.6037 9.0539 32.7096C8.96084 30.6616 8.94219 30.0465 8.94219 24.8585C8.94219 19.6706 8.96084 19.0588 9.0539 17.0108C9.14054 15.1167 9.45701 14.0886 9.72296 13.4038C10.0752 12.4971 10.4967 11.8496 11.1769 11.1697C11.857 10.4897 12.5043 10.0688 13.411 9.71597C14.0958 9.44884 15.1243 9.13316 17.0184 9.04612C18.8105 8.96511 19.505 8.94083 23.1257 8.93675V8.94161ZM35.2386 12.1673C33.9515 12.1673 32.9073 13.2105 32.9073 14.4977C32.9073 15.7848 33.9515 16.829 35.2386 16.829C36.5256 16.829 37.5698 15.7848 37.5698 14.4977C37.5698 13.2107 36.5256 12.1665 35.2386 12.1665V12.1673ZM24.8684 14.8911C19.3589 14.8911 14.8919 19.3582 14.8919 24.8679C14.8919 30.3776 19.3589 34.8425 24.8684 34.8425C30.3781 34.8425 34.8436 30.3776 34.8436 24.8679C34.8436 19.3584 30.3778 14.8911 24.8681 14.8911H24.8684ZM24.8684 18.3921C28.4448 18.3921 31.3442 21.2912 31.3442 24.8679C31.3442 28.4442 28.4448 31.3437 24.8684 31.3437C21.2921 31.3437 18.3928 28.4442 18.3928 24.8679C18.3928 21.2912 21.2919 18.3921 24.8684 18.3921Z" fill="white"/>
</g>
<defs>
<radialGradient id="paint0_radial_1251_18" cx="0" cy="0" r="1" gradientUnits="userSpaceOnUse" gradientTransform="translate(13.2104 53.5644) rotate(-90) scale(49.2892 45.8429)">
<stop stop-color="#FFDD55"/>
<stop offset="0.1" stop-color="#FFDD55"/>
<stop offset="0.5" stop-color="#FF543E"/>
<stop offset="1" stop-color="#C837AB"/>
</radialGradient>
<radialGradient id="paint1_radial_1251_18" cx="0" cy="0" r="1" gradientUnits="userSpaceOnUse" gradientTransform="translate(-8.33049 3.58341) rotate(78.681) scale(22.0326 90.8189)">
<stop stop-color="#3771C8"/>
<stop offset="0.128" stop-color="#3771C8"/>
<stop offset="1" stop-color="#6600FF" stop-opacity="0"/>
</radialGradient>
<clipPath id="clip0_1251_18">
<rect width="49.7331" height="49.7331" fill="white"/>
</clipPath>
</defs>
</svg>
