<svg width="291" height="266" viewBox="0 0 291 266" fill="none" xmlns="http://www.w3.org/2000/svg">
<path d="M286.845 40.0995L145.225 79.2343L3.51758 40.1073L145.139 0.971558L286.845 40.0995Z" fill="#010339"/>
<path d="M286.845 40.0995L287.094 41.0022L290.362 40.0991L287.094 39.1967L286.845 40.0995ZM145.225 79.2343L144.975 80.137L145.225 80.2059L145.474 80.137L145.225 79.2343ZM3.51758 40.1073L3.26812 39.2046L0.000148296 40.1077L3.26832 41.0101L3.51758 40.1073ZM145.139 0.971558L145.388 0.0688052L145.139 -5.04255e-05L144.889 0.0688563L145.139 0.971558ZM286.845 40.0995L286.595 39.1968L144.975 78.3316L145.225 79.2343L145.474 80.137L287.094 41.0022L286.845 40.0995ZM145.225 79.2343L145.474 78.3315L3.76684 39.2045L3.51758 40.1073L3.26832 41.0101L144.975 80.137L145.225 79.2343ZM3.51758 40.1073L3.76703 41.01L145.388 1.87426L145.139 0.971558L144.889 0.0688563L3.26812 39.2046L3.51758 40.1073ZM145.139 0.971558L144.889 1.87431L286.595 41.0022L286.845 40.0995L287.094 39.1967L145.388 0.0688052L145.139 0.971558Z" fill="#F7F7F7"/>
<path d="M286.889 224.854L145.182 263.981V79.236L286.889 40.108V224.854Z" fill="#010339"/>
<path d="M286.889 224.854L287.138 225.757L287.825 225.567V224.854H286.889ZM145.182 263.981H144.245V265.211L145.431 264.884L145.182 263.981ZM145.182 79.236L144.932 78.3332L144.245 78.523V79.236H145.182ZM286.889 40.108H287.825V38.8779L286.639 39.2053L286.889 40.108ZM286.889 224.854L286.639 223.951L144.932 263.078L145.182 263.981L145.431 264.884L287.138 225.757L286.889 224.854ZM145.182 263.981H146.118V79.236H145.182H144.245V263.981H145.182ZM145.182 79.236L145.431 80.1387L287.138 41.0108L286.889 40.108L286.639 39.2053L144.932 78.3332L145.182 79.236ZM286.889 40.108H285.952V224.854H286.889H287.825V40.108H286.889Z" fill="#F7F7F7"/>
<path d="M145.225 79.236V263.981L3.51758 224.854V40.108L145.225 79.236Z" fill="#010339"/>
<path d="M145.225 79.236H146.161V78.523L145.474 78.3332L145.225 79.236ZM145.225 263.981L144.975 264.884L146.161 265.211V263.981H145.225ZM3.51758 224.854H2.58104V225.567L3.26832 225.757L3.51758 224.854ZM3.51758 40.108L3.76684 39.2053L2.58104 38.8779V40.108H3.51758ZM145.225 79.236H144.288V263.981H145.225H146.161V79.236H145.225ZM145.225 263.981L145.474 263.078L3.76684 223.951L3.51758 224.854L3.26832 225.757L144.975 264.884L145.225 263.981ZM3.51758 224.854H4.45411V40.108H3.51758H2.58104V224.854H3.51758ZM3.51758 40.108L3.26831 41.0108L144.975 80.1387L145.225 79.236L145.474 78.3332L3.76684 39.2053L3.51758 40.108Z" fill="#F7F7F7"/>
<path d="M20.8477 74.0078C20.8477 72.6687 22.1381 71.7078 23.421 72.0918L56.3775 81.9543C57.2242 82.2076 57.8042 82.9866 57.8042 83.8703V212.874C57.8042 214.213 56.5137 215.173 55.2308 214.79L22.2743 204.927C21.4276 204.674 20.8477 203.895 20.8477 203.011L20.8477 74.0078Z" fill="#010339" stroke="white" stroke-width="1.87"/>
<path d="M31.1602 75.8041L56.3979 83.6625C57.2338 83.9228 57.8033 84.6966 57.8033 85.5721V205.246L32.5656 197.388C31.7296 197.128 31.1602 196.354 31.1602 195.478L31.1602 75.8041Z" fill="#010339" stroke="white" stroke-width="1.87"/>
<path d="M82.7285 92.9158C82.7285 91.5766 84.019 90.6158 85.3019 90.9997L118.258 100.862C119.105 101.116 119.685 101.895 119.685 102.778V231.781C119.685 233.121 118.395 234.081 117.112 233.698L84.1551 223.835C83.3085 223.582 82.7285 222.803 82.7285 221.919L82.7285 92.9158Z" fill="#010339" stroke="white" stroke-width="1.87"/>
<path d="M269.23 74.0078C269.23 72.6687 267.94 71.7078 266.657 72.0918L233.701 81.9543C232.854 82.2076 232.274 82.9866 232.274 83.8703V212.874C232.274 214.213 233.564 215.173 234.847 214.79L267.804 204.927C268.65 204.674 269.23 203.895 269.23 203.011L269.23 74.0078Z" fill="#010339" stroke="white" stroke-width="1.87"/>
<path d="M207.35 92.9158C207.35 91.5766 206.059 90.6158 204.776 90.9997L171.82 100.862C170.973 101.116 170.393 101.895 170.393 102.778V231.781C170.393 233.121 171.684 234.081 172.966 233.698L205.923 223.835C206.77 223.582 207.35 222.803 207.35 221.919L207.35 92.9158Z" fill="#010339" stroke="white" stroke-width="1.87"/>
<path d="M93.041 93.6675L118.279 101.526C119.115 101.786 119.684 102.56 119.684 103.436V223.11L94.4464 215.251C93.6105 214.991 93.041 214.217 93.041 213.342L93.041 93.6675Z" fill="#010339" stroke="white" stroke-width="1.87"/>
<path d="M197.035 93.6675L171.797 101.526C170.962 101.786 170.392 102.56 170.392 103.436V223.11L195.63 215.251C196.466 214.991 197.035 214.217 197.035 213.342L197.035 93.6675Z" fill="#010339" stroke="white" stroke-width="1.87"/>
<path d="M258.916 74.7596L233.678 82.618C232.842 82.8783 232.273 83.652 232.273 84.5275V204.202L257.511 196.343C258.347 196.083 258.916 195.309 258.916 194.434L258.916 74.7596Z" fill="#010339" stroke="white" stroke-width="1.87"/>
<path d="M106.582 42.1002C106.722 42.1002 106.86 42.1196 106.994 42.1579L135.785 50.3839C136.429 50.5679 136.873 51.1565 136.873 51.8262V64.2027C136.873 65.1913 135.934 65.9095 134.98 65.6502L59.1921 45.0477C57.5027 44.5884 57.8348 42.1002 59.5856 42.1002H106.582Z" fill="white"/>
<path d="M106.582 36.9436C106.722 36.9436 106.86 36.9242 106.994 36.8859L135.785 28.6599C136.429 28.4759 136.873 27.8873 136.873 27.2176V14.8411C136.873 13.8526 135.934 13.1343 134.98 13.3936L59.1921 33.9961C57.5027 34.4554 57.8348 36.9436 59.5856 36.9436H106.582Z" fill="white"/>
<path d="M183.494 36.9436C183.354 36.9436 183.216 36.9242 183.082 36.8859L154.291 28.6599C153.647 28.4759 153.203 27.8873 153.203 27.2176V14.8411C153.203 13.8526 154.142 13.1343 155.096 13.3936L230.884 33.9961C232.574 34.4554 232.241 36.9436 230.491 36.9436H183.494Z" fill="white"/>
<path d="M183.494 42.1002C183.354 42.1002 183.216 42.1196 183.082 42.1579L154.291 50.3839C153.647 50.5679 153.203 51.1565 153.203 51.8262V64.2027C153.203 65.1913 154.142 65.9095 155.096 65.6502L230.884 45.0477C232.574 44.5884 232.241 42.1002 230.491 42.1002H183.494Z" fill="white"/>
</svg>
