<svg width="201" height="153" viewBox="0 0 201 153" fill="none" xmlns="http://www.w3.org/2000/svg">
<path d="M169.563 12.6923C156.87 6.77557 143.128 2.4812 128.814 0C128.562 0.00358537 128.322 0.106489 128.146 0.286294C126.428 3.4355 124.424 7.53902 123.088 10.6882C107.905 8.39933 92.4644 8.39933 77.2813 10.6882C75.9452 7.44359 73.9412 3.4355 72.128 0.286294C72.0326 0.0954326 71.7463 0 71.46 0C57.1454 2.4812 43.4988 6.77557 30.7111 12.6923C30.6157 12.6923 30.5203 12.7877 30.4248 12.8831C4.46772 51.7234 -2.68958 89.5139 0.841355 126.923C0.841355 127.114 0.936786 127.304 1.12765 127.4C18.3052 139.997 34.8146 147.631 51.1333 152.689C51.4196 152.784 51.7059 152.689 51.8013 152.498C55.6185 147.249 59.054 141.714 62.0124 135.893C62.2032 135.511 62.0124 135.13 61.6306 135.034C56.1911 132.935 51.0378 130.454 45.98 127.591C45.5983 127.4 45.5983 126.827 45.8846 126.541C46.9343 125.778 47.9841 124.919 49.0338 124.155C49.2247 123.964 49.511 123.964 49.7018 124.06C82.5299 139.042 117.935 139.042 150.381 124.06C150.572 123.964 150.858 123.964 151.049 124.155C152.099 125.014 153.149 125.778 154.198 126.636C154.58 126.923 154.58 127.495 154.103 127.686C149.14 130.644 143.892 133.03 138.452 135.13C138.071 135.225 137.975 135.702 138.071 135.989C141.124 141.81 144.56 147.345 148.282 152.594C148.568 152.689 148.854 152.784 149.14 152.689C165.555 147.631 182.064 139.997 199.242 127.4C199.432 127.304 199.528 127.114 199.528 126.923C203.727 83.6926 192.561 46.1884 169.944 12.8831C169.849 12.7877 169.753 12.6923 169.563 12.6923ZM66.9748 104.115C57.1454 104.115 48.9384 95.0489 48.9384 83.8835C48.9384 72.7181 56.9545 63.6522 66.9748 63.6522C77.0904 63.6522 85.1066 72.8135 85.0111 83.8835C85.0111 95.0489 76.995 104.115 66.9748 104.115ZM133.49 104.115C123.661 104.115 115.453 95.0489 115.453 83.8835C115.453 72.7181 123.47 63.6522 133.49 63.6522C143.606 63.6522 151.622 72.8135 151.526 83.8835C151.526 95.0489 143.606 104.115 133.49 104.115Z" fill="#F7F7F7"/>
</svg>
